Coordinates
version=1
nRows=7
nColumns=42
inDegrees=yes

Units are S.I. units (second, meters, Newtons, ...)
If the header above contains a line with 'inDegrees', this indicates whether rotational values are in degrees (yes) or radians (no).

endheader
time	pelvis_tilt	pelvis_list	pelvis_rotation	pelvis_tx	pelvis_ty	pelvis_tz	hip_flexion_r	hip_adduction_r	hip_rotation_r	knee_angle_r	knee_adduction_r	knee_angle_r_beta	ankle_angle_r	subtalar_angle_r	mtp_angle_r	hip_flexion_l	hip_adduction_l	hip_rotation_l	knee_angle_l	knee_adduction_l	knee_angle_l_beta	ankle_angle_l	subtalar_angle_l	mtp_angle_l	lumbar_extension	lumbar_bending	lumbar_rotation	arm_flex_r	arm_add_r	arm_rot_r	elbow_flex_r	pro_sup_r	wrist_flex_r	wrist_dev_r	arm_flex_l	arm_add_l	arm_rot_l	elbow_flex_l	pro_sup_l	wrist_flex_l	wrist_dev_l
      0.97000000	     -7.92351045	      2.09758062	      0.62605283	     -0.67778068	      0.93061351	     -0.08872061	     -4.42748508	      0.20768461	     -4.85370467	     35.09835296	     -2.79068233	      0.61258182	      5.44776032	     -5.77876045	     -7.66417788	     31.35040490	      5.76813972	      7.11868726	     24.53872625	     -0.70418739	      0.42828157	      4.34336768	     -8.15020952	     -7.66417788	     -1.29595916	     -7.85526101	      4.32286159	     -1.10494825	    -12.02385734	     -2.14930221	     28.36816442	     90.00000001	      0.00000000	      0.00000000	    -12.94328280	    -12.30955790	    -11.83264856	     20.58239914	     90.00000001	      0.00000000	      0.00000000
      0.98000000	     -7.81921353	      2.07584902	      0.66324802	     -0.66571103	      0.93337552	     -0.08952446	     -2.73968928	     -0.04409256	     -5.26706237	     38.75812881	     -3.05412646	      0.67645696	      4.42660477	     -7.21081902	     -7.66179768	     30.07918032	      5.83002885	      6.76387253	     23.97136703	     -0.91218112	      0.41837928	      5.28380708	     -7.37216264	     -7.66179768	     -1.38937345	     -7.84690338	      4.18034819	     -1.58287428	    -11.71375295	     -1.81030130	     27.55478357	     90.00000001	      0.00000000	      0.00000000	    -12.42548572	    -12.35442033	    -11.61384599	     21.06096479	     90.00000001	      0.00000000	      0.00000000
      0.99000000	     -8.25406648	      2.00494119	      0.65376508	     -0.65426162	      0.93535926	     -0.09050502	     -0.22782726	     -0.35214915	     -5.08531021	     42.67325882	     -2.86658888	      0.74478887	      3.80715286	     -9.59957546	     -7.65414055	     29.60550759	      5.89225124	      6.15259590	     23.68774133	     -1.30386936	      0.41342908	      6.01296116	     -6.29420829	     -7.65414055	     -0.86365412	     -7.73395807	      4.07365798	     -2.15605422	    -11.45994375	     -1.45186030	     26.86886748	     90.00000001	      0.00000000	      0.00000000	    -12.08656390	    -12.42553225	    -10.79045307	     21.76627993	     90.00000001	      0.00000000	      0.00000000
      1.00000000	     -7.99246409	      1.92700735	      0.80553571	     -0.64235000	      0.93836539	     -0.09130080	      1.26766951	     -0.50823933	     -5.73268755	     45.76939534	     -3.30733500	      0.79882665	      3.57180809	    -10.86229933	     -7.65124647	     28.04384404	      5.93297722	      6.12710189	     22.88008914	     -1.45039514	      0.39933289	      6.80229006	     -5.57474845	     -7.65124647	     -1.15339599	     -7.64560391	      3.75043109	     -2.59532685	    -11.14370661	     -1.14079637	     26.15496038	     90.00000001	      0.00000000	      0.00000000	    -11.48276529	    -12.51101259	    -10.51140549	     22.28489775	     90.00000001	      0.00000000	      0.00000000
      1.01000000	     -8.23348481	      1.86799005	      0.93153955	     -0.63093551	      0.94066878	     -0.09251063	      3.47614182	     -0.89115996	     -5.62969570	     48.99849315	     -2.97756506	      0.85518503	      3.21523485	    -13.23232557	     -7.64405820	     27.13452255	      6.09539368	      6.13363596	     22.18789372	     -1.75415151	      0.38725180	      7.11875902	     -5.08832063	     -7.64405820	     -0.85085497	     -7.50295097	      3.41972862	     -3.11311517	    -10.88016025	     -0.89020460	     25.56542732	     90.00000001	      0.00000000	      0.00000000	    -11.13489720	    -12.61106679	     -9.50259055	     23.07970088	     90.00000001	      0.00000000	      0.00000000
      1.02000000	     -7.81140598	      1.45917372	      1.18613010	     -0.61925152	      0.94388916	     -0.09369429	      4.67329894	     -0.74604283	     -6.17651313	     51.26383425	     -3.16743664	      0.89472269	      3.52509808	    -13.66468934	     -7.64222821	     25.51672232	      5.81550174	      6.19839734	     21.60923149	     -1.87213484	      0.37715224	      7.61109946	     -4.66114028	     -7.64222821	     -1.34776624	     -6.93057791	      2.91265260	     -3.54032901	    -10.70409094	     -0.77262481	     25.14178871	     90.00000001	      0.00000000	      0.00000000	    -10.42645036	    -12.52495890	     -9.26933570	     23.55460376	     90.00000001	      0.00000000	      0.00000000
      1.03000000	     -7.78182370	      1.42401938	      1.48224557	     -0.60737386	      0.94656944	     -0.09459673	      6.39238508	     -1.08691253	     -6.80619601	     53.51457052	     -3.34091727	      0.93400545	      3.62895922	    -15.10476347	     -7.63948312	     23.95241223	      5.96722812	      6.73522758	     20.27259905	     -2.03482770	      0.35382360	      8.18120776	     -3.92400703	     -7.63948312	     -1.28607551	     -6.86944758	      2.41013404	     -4.06652122	    -10.31587290	     -0.57078535	     24.51178594	     90.00000001	      0.00000000	      0.00000000	     -9.85901309	    -12.72101235	     -8.69118019	     24.07545515	     90.00000001	      0.00000000	      0.00000000
